<?xml version="1.0" encoding="utf-8"?>
<!-- Generator: Adobe Illustrator 19.0.0, SVG Export Plug-In . SVG Version: 6.00 Build 0)  -->
<svg version="1.1" id="Layer_1" xmlns="http://www.w3.org/2000/svg" xmlns:xlink="http://www.w3.org/1999/xlink" x="0px" y="0px"
	 viewBox="-240 378.7 131 36.3" style="enable-background:new -240 378.7 131 36.3;" xml:space="preserve">
<style type="text/css">
	.st0{fill:#121212;}
	.st1{fill:#E71858;}
	.st2{fill:#3CBEB2;}
</style>
<g id="XMLID_2574_">
	<g id="XMLID_2934_">
		<path id="XMLID_3286_" class="st0" d="M-178.4,401.4c0-1.7,0.3-3.2,0.7-4.4c0.5-1.2,1.1-2.2,2-2.8s1.6-1,2.5-1.3
			c0.9-0.3,1.8-0.3,2.9-0.3c1.3,0,2.5,0.2,3.7,0.5v-6.9h3.3V405c0,0.3,0,0.8-0.1,1.1c-0.1,0.3-0.3,0.9-0.5,1.5
			c-0.3,0.6-0.7,1.1-1.1,1.6c-0.5,0.4-1.2,0.8-2.2,1.1c-1,0.3-2.1,0.4-3.3,0.4c-0.7,0-1.3-0.1-2-0.2c-0.6-0.1-1.3-0.3-2.1-0.8
			c-0.8-0.4-1.4-1-1.9-1.6s-1-1.6-1.3-2.7C-178.1,404.3-178.4,402.9-178.4,401.4z M-175.2,401.4c0,1.4,0.1,2.5,0.3,3.4
			c0.3,0.9,0.6,1.6,1.1,2s1,0.7,1.4,0.9s1,0.3,1.6,0.3c2.7,0,4.1-0.9,4.1-2.6v-9.1c-1.2-0.5-2.4-0.7-3.7-0.7c-0.7,0-1.3,0.1-1.8,0.2
			c-0.5,0.2-1,0.4-1.6,0.8c-0.5,0.3-0.9,1-1.1,1.8C-175,399.1-175.2,400.1-175.2,401.4z"/>
		<path id="XMLID_3283_" class="st0" d="M-159.9,390.1v-3.4h3.4v3.4H-159.9z M-159.8,410.4v-17.6h3.2v17.6H-159.8z"/>
		<path id="XMLID_3281_" class="st0" d="M-153.1,410.4v-24.3h3.2v24.3C-149.9,410.4-153.1,410.4-153.1,410.4z"/>
		<path id="XMLID_2938_" class="st0" d="M-146.5,390.1v-3.4h3.4v3.4H-146.5z M-146.4,410.4v-17.6h3.2v17.6H-146.4z"/>
		<path id="XMLID_2936_" class="st0" d="M-139.7,410.4v-16.1c2.3-1.1,4.8-1.7,7.3-1.7c1.9,0,3.5,0.4,4.7,1.3
			c2.2-0.9,4.3-1.3,6.4-1.3c2.2,0,4,0.6,5.2,1.7s1.9,2.8,1.9,4.8v11.3h-3.2v-11.6c0-1-0.3-1.8-0.8-2.4c-0.5-0.6-1.5-1-2.9-1
			c-1.6,0-3.1,0.3-4.7,1c0.3,0.8,0.4,1.6,0.4,2.5v0.1v11.2h-3.2v-11.3c0-1-0.3-1.8-0.8-2.4c-0.5-0.6-1.6-0.9-3.2-0.9
			c-1.2,0-2.5,0.2-3.8,0.5v14.3H-139.7L-139.7,410.4z"/>
	</g>
</g>
<g id="XMLID_1_">
	<g id="XMLID_5_">
		<g id="XMLID_33_">
			<path id="XMLID_34_" class="st1" d="M-196.5,389.9c-0.4,0.5-0.8,1-1.1,1.5c-3.9,5-7.8,10-11.8,15.1c-4-5.1-7.8-10-11.7-15
				c-0.4-0.5-0.8-1.1-1.2-1.6c3.3-3,8.1-4.6,12.9-4.6C-204.9,385.4-200.2,386.8-196.5,389.9z"/>
		</g>
		<g id="XMLID_31_">
			<g id="XMLID_66_">
				<path id="XMLID_67_" class="st2" d="M-194.1,387.3c-0.6,0.9-0.8,1.2-1.2,1.2c-0.3,0-0.6-0.3-1.2-0.7c-4-2.6-8.4-4-13.2-4
					c-5,0-9.6,1.5-13.6,4.4c-0.1,0.1-0.2,0.1-0.2,0.1l0,0c-0.7,0.4-0.9-0.3-1.2-0.7c-0.6-0.6-0.1-0.9,0.3-1.2
					c4-2.8,8.4-4.3,13.3-4.6c6.1-0.4,11.6,1.3,16.6,4.8c0.2,0.1,0.4,0.3,0.5,0.4C-194.1,387.3-194.1,387.3-194.1,387.3z"/>
			</g>
		</g>
		<g id="XMLID_17_">
			<g id="XMLID_35_">
				<path id="XMLID_36_" class="st2" d="M-194.5,391.9c1.4,1.5,2.9,2.9,4.1,4.5c2.7,3.5,4.3,7.5,4.6,12c0,0.4,0.1,0.7,0.1,1.1
					c0,0.7,0.4,0.9,1.1,0.9c0.9,0,1.1-0.3,1-1.1c-0.3-3.1-0.9-6.1-2.1-9c-1.6-3.7-4-6.8-7.1-9.5c-0.5-0.4-0.8-0.4-1.1,0.1
					C-194,391.4-194.3,391.7-194.5,391.9z"/>
			</g>
		</g>
		<g id="XMLID_8_">
			<g id="XMLID_29_">
				<path id="XMLID_30_" class="st2" d="M-225.1,391.9c-1.4,1.5-2.9,2.9-4.1,4.5c-2.7,3.5-4.3,7.5-4.6,12c0,0.4-0.1,0.7-0.1,1.1
					c0,0.7-0.4,0.9-1.1,0.9c-0.9,0-1.1-0.3-1-1.1c0.3-3.1,0.9-6.1,2.1-9c1.6-3.7,4-6.8,7.1-9.5c0.5-0.4,0.8-0.4,1.1,0.1
					C-225.5,391.4-225.2,391.7-225.1,391.9z"/>
			</g>
		</g>
		<g id="XMLID_6_">
			<path id="XMLID_7_" class="st1" d="M-187,410.6c0-7.4-3.6-14-9.1-18.1c-3.9,5-7.9,10-11.9,15.2l-1.5,1.9l-1.5-1.9
				c-2.3-2.9-4.5-5.8-6.8-8.7c-1.7-2.1-3.3-4.2-5-6.3c-5.3,4-8.8,10.6-8.8,17.9c0,0.3,0,0.5,0,0.8h44.6
				C-187,411.1-187,410.8-187,410.6z"/>
		</g>
	</g>
</g>
</svg>
