<?xml version="1.0" encoding="utf-8"?>
<!-- Generator: Adobe Illustrator 19.0.0, SVG Export Plug-In . SVG Version: 6.00 Build 0)  -->
<svg version="1.1" id="Layer_1" xmlns="http://www.w3.org/2000/svg" xmlns:xlink="http://www.w3.org/1999/xlink" x="0px" y="0px"
	 viewBox="-275 378.7 59.7 36.3" style="enable-background:new -275 378.7 59.7 36.3;" xml:space="preserve">
<style type="text/css">
	.st0{fill:#E71858;}
	.st1{fill:#3CBEB2;}
</style>
<g id="XMLID_1_">
	<g id="XMLID_5_">
		<g id="XMLID_33_">
			<path id="XMLID_34_" class="st0" d="M-231.5,389.9c-0.4,0.5-0.8,1-1.1,1.5c-3.9,5-7.8,10-11.8,15.1c-4-5.1-7.8-10-11.7-15
				c-0.4-0.5-0.8-1.1-1.2-1.6c3.3-3,8.1-4.6,12.9-4.6C-239.9,385.4-235.2,386.8-231.5,389.9z"/>
		</g>
		<g id="XMLID_31_">
			<g id="XMLID_66_">
				<path id="XMLID_67_" class="st1" d="M-229.1,387.3c-0.6,0.9-0.8,1.2-1.2,1.2c-0.3,0-0.6-0.3-1.2-0.7c-4-2.6-8.4-4-13.2-4
					c-5,0-9.6,1.5-13.6,4.4c-0.1,0.1-0.2,0.1-0.2,0.1l0,0c-0.7,0.4-0.9-0.3-1.2-0.7c-0.6-0.6-0.1-0.9,0.3-1.2
					c4-2.8,8.4-4.3,13.3-4.6c6.1-0.4,11.6,1.3,16.6,4.8c0.2,0.1,0.4,0.3,0.5,0.4C-229.1,387.3-229.1,387.3-229.1,387.3z"/>
			</g>
		</g>
		<g id="XMLID_17_">
			<g id="XMLID_35_">
				<path id="XMLID_36_" class="st1" d="M-229.5,391.9c1.4,1.5,2.9,2.9,4.1,4.5c2.7,3.5,4.3,7.5,4.6,12c0,0.4,0.1,0.7,0.1,1.1
					c0,0.7,0.4,0.9,1.1,0.9c0.9,0,1.1-0.3,1-1.1c-0.3-3.1-0.9-6.1-2.1-9c-1.6-3.7-4-6.8-7.1-9.5c-0.5-0.4-0.8-0.4-1.1,0.1
					C-229,391.4-229.3,391.7-229.5,391.9z"/>
			</g>
		</g>
		<g id="XMLID_8_">
			<g id="XMLID_29_">
				<path id="XMLID_30_" class="st1" d="M-260.1,391.9c-1.4,1.5-2.9,2.9-4.1,4.5c-2.7,3.5-4.3,7.5-4.6,12c0,0.4-0.1,0.7-0.1,1.1
					c0,0.7-0.4,0.9-1.1,0.9c-0.9,0-1.1-0.3-1-1.1c0.3-3.1,0.9-6.1,2.1-9c1.6-3.7,4-6.8,7.1-9.5c0.5-0.4,0.8-0.4,1.1,0.1
					C-260.5,391.4-260.2,391.7-260.1,391.9z"/>
			</g>
		</g>
		<g id="XMLID_6_">
			<path id="XMLID_7_" class="st0" d="M-222,410.6c0-7.4-3.6-14-9.1-18.1c-3.9,5-7.9,10-11.9,15.2l-1.5,1.9l-1.5-1.9
				c-2.3-2.9-4.5-5.8-6.8-8.7c-1.7-2.1-3.3-4.2-5-6.3c-5.3,4-8.8,10.6-8.8,17.9c0,0.3,0,0.5,0,0.8h44.6
				C-222,411.1-222,410.8-222,410.6z"/>
		</g>
	</g>
</g>
</svg>
