<?xml version="1.0" encoding="utf-8"?>
<!-- Generator: Adobe Illustrator 22.1.0, SVG Export Plug-In . SVG Version: 6.00 Build 0)  -->
<svg version="1.1" id="Layer_1" xmlns="http://www.w3.org/2000/svg" xmlns:xlink="http://www.w3.org/1999/xlink" x="0px" y="0px"
	 viewBox="0 0 144 35" style="enable-background:new 0 0 144 35;" xml:space="preserve">
<style type="text/css">
	.st0{fill:#FFFFFF;}
	.st1{fill:#3CBEB2;}
</style>
<g id="XMLID_2574_">
	<g id="XMLID_2934_">
		<path id="XMLID_3286_" class="st0" d="M56.6,24c0-1.7,0.3-3.2,0.7-4.4c0.5-1.2,1.1-2.2,2-2.8c0.9-0.6,1.6-1,2.5-1.3
			s1.8-0.3,2.9-0.3c1.3,0,2.5,0.2,3.7,0.5V8.8h3.3v18.8c0,0.3,0,0.8-0.1,1.1c-0.1,0.3-0.3,0.9-0.5,1.5c-0.3,0.6-0.7,1.1-1.1,1.6
			c-0.5,0.4-1.2,0.8-2.2,1.1s-2.1,0.4-3.3,0.4c-0.7,0-1.3-0.1-2-0.2c-0.6-0.1-1.3-0.3-2.1-0.8c-0.8-0.4-1.4-1-1.9-1.6
			s-1-1.6-1.3-2.7C56.9,26.9,56.6,25.5,56.6,24z M59.8,24c0,1.4,0.1,2.5,0.3,3.4c0.3,0.9,0.6,1.6,1.1,2s1,0.7,1.4,0.9
			c0.4,0.2,1,0.3,1.6,0.3c2.7,0,4.1-0.9,4.1-2.6v-9.1c-1.2-0.5-2.4-0.7-3.7-0.7c-0.7,0-1.3,0.1-1.8,0.2c-0.5,0.2-1,0.4-1.6,0.8
			c-0.5,0.3-0.9,1-1.1,1.8C60,21.7,59.8,22.7,59.8,24z"/>
		<path id="XMLID_3283_" class="st0" d="M75.1,12.7V9.3h3.4v3.4C78.5,12.7,75.1,12.7,75.1,12.7z M75.2,33V15.4h3.2V33H75.2z"/>
		<path id="XMLID_3281_" class="st0" d="M81.9,33V8.7h3.2V33H81.9z"/>
		<path id="XMLID_2938_" class="st0" d="M88.5,12.7V9.3h3.4v3.4C91.9,12.7,88.5,12.7,88.5,12.7z M88.6,33V15.4h3.2V33H88.6z"/>
		<path id="XMLID_2936_" class="st0" d="M95.3,33V16.9c2.3-1.1,4.8-1.7,7.3-1.7c1.9,0,3.5,0.4,4.7,1.3c2.2-0.9,4.3-1.3,6.4-1.3
			c2.2,0,4,0.6,5.2,1.7s1.9,2.8,1.9,4.8V33h-3.2V21.4c0-1-0.3-1.8-0.8-2.4s-1.5-1-2.9-1c-1.6,0-3.1,0.3-4.7,1
			c0.3,0.8,0.4,1.6,0.4,2.5v0.1v11.2h-3.2V21.5c0-1-0.3-1.8-0.8-2.4s-1.6-0.9-3.2-0.9c-1.2,0-2.5,0.2-3.8,0.5V33H95.3L95.3,33z"/>
	</g>
	<g id="XMLID_1_">
		<path id="XMLID_30_" class="st0" d="M48.3,30.6c0,0.8,0,1.4-0.1,2.4H6.4c-0.1-1-0.1-1.6-0.1-2.4c0-6.9,3.3-13,8.4-16.8
			c1.6,2,3.1,4,4.7,6c2.1,2.7,4.2,5.4,6.4,8.2l1.4,1.8l1.4-1.8c3.8-4.9,7.5-9.6,11.2-14.3C45,17.4,48.3,23.6,48.3,30.6z"/>
		<g id="XMLID_19_">
			<path id="XMLID_20_" class="st0" d="M39.3,11.2c-0.4,0.5-0.7,0.9-1.1,1.4c-3.7,4.7-7.4,9.5-11.1,14.3c-3.7-4.8-7.4-9.5-11-14.1
				c-0.4-0.5-0.8-1-1.2-1.5C18,8.5,22.5,7,27.1,7C31.5,6.9,35.9,8.3,39.3,11.2z"/>
		</g>
		<g id="XMLID_16_">
			<path id="XMLID_12_" class="st1" d="M41.6,8.8c-0.5,0.8-0.7,1.2-1.1,1.1c-0.3,0-0.6-0.2-1.2-0.6c-3.8-2.5-7.9-3.8-12.4-3.7
				c-4.7,0-9,1.4-12.8,4.1c-0.1,0.1-0.2,0.1-0.2,0.1l0,0c-0.7,0.4-0.8-0.3-1.2-0.6c-0.5-0.6-0.1-0.8,0.3-1.1
				c3.7-2.6,7.9-4.1,12.5-4.4c5.8-0.4,10.9,1.2,15.6,4.5c0.2,0.1,0.3,0.3,0.5,0.4C41.6,8.7,41.6,8.8,41.6,8.8z"/>
		</g>
		<g id="XMLID_6_">
			<path id="XMLID_15_" class="st1" d="M41.3,13.1c1.3,1.5,2.7,2.8,3.9,4.3c2.6,3.3,4,7.1,4.4,11.3c0,0.3,0.1,0.6,0.1,1
				c0,0.7,0.4,0.9,1,0.9c0.8,0,1-0.3,1-1c-0.3-2.9-0.8-5.8-2-8.5c-1.5-3.5-3.8-6.4-6.7-8.9c-0.4-0.4-0.7-0.4-1,0.1
				C41.7,12.6,41.4,12.9,41.3,13.1z"/>
		</g>
		<g id="XMLID_3_">
			<path id="XMLID_5_" class="st1" d="M12.4,13.1c-1.3,1.5-2.7,2.8-3.9,4.3c-2.6,3.3-4,7.1-4.4,11.3c0,0.3-0.1,0.6-0.1,1
				c0,0.7-0.4,0.9-1,0.9c-0.8,0-1-0.3-1-1c0.3-2.9,0.8-5.8,2-8.5c1.5-3.5,3.8-6.4,6.7-8.9c0.4-0.4,0.7-0.4,1,0.1
				C12,12.6,12.3,12.9,12.4,13.1z"/>
		</g>
	</g>
</g>
</svg>
