<svg width="43" height="43" viewBox="0 0 43 43" fill="none" xmlns="http://www.w3.org/2000/svg">
<rect width="42.7547" height="42.7547" rx="10.3648" fill="#D7F4D7"/>
<g clip-path="url(#clip0)">
<path d="M18 24.75L21 27.75L24 24.75" stroke="#35C635" stroke-width="1.5" stroke-linecap="round" stroke-linejoin="round"/>
<path d="M21 21V27.75" stroke="#35C635" stroke-width="1.5" stroke-linecap="round" stroke-linejoin="round"/>
<path d="M27.6599 25.5675C28.3119 25.109 28.8009 24.4546 29.0559 23.6994C29.3108 22.9441 29.3184 22.1273 29.0777 21.3674C28.8369 20.6075 28.3603 19.9441 27.7169 19.4734C27.0736 19.0028 26.297 18.7494 25.4999 18.75H24.5549C24.3293 17.8709 23.9073 17.0544 23.3205 16.3621C22.7337 15.6697 21.9975 15.1194 21.1673 14.7528C20.3371 14.3861 19.4345 14.2125 18.5275 14.2451C17.6205 14.2777 16.7328 14.5157 15.9311 14.9411C15.1293 15.3664 14.4346 15.9681 13.899 16.7009C13.3635 17.4336 13.0012 18.2783 12.8393 19.1713C12.6775 20.0643 12.7203 20.9824 12.9647 21.8565C13.209 22.7306 13.6484 23.5378 14.2499 24.2175" stroke="#35C635" stroke-width="1.5" stroke-linecap="round" stroke-linejoin="round"/>
</g>
<defs>
<clipPath id="clip0">
<rect width="18" height="18" fill="white" transform="translate(12 12)"/>
</clipPath>
</defs>
</svg>
