<svg width="43" height="43" viewBox="0 0 43 43" fill="none" xmlns="http://www.w3.org/2000/svg">
<rect width="42.7547" height="42.7547" rx="10.3648" fill="#FFD0DF"/>
<path fill-rule="evenodd" clip-rule="evenodd" d="M13.5 14.25C13.5 13.8358 13.8358 13.5 14.25 13.5H19.5C19.9142 13.5 20.25 13.8358 20.25 14.25V19.5C20.25 19.9142 19.9142 20.25 19.5 20.25H14.25C13.8358 20.25 13.5 19.9142 13.5 19.5V14.25ZM15 15V18.75H18.75V15H15Z" fill="#E71858"/>
<path fill-rule="evenodd" clip-rule="evenodd" d="M21.75 14.25C21.75 13.8358 22.0858 13.5 22.5 13.5H27.75C28.1642 13.5 28.5 13.8358 28.5 14.25V19.5C28.5 19.9142 28.1642 20.25 27.75 20.25H22.5C22.0858 20.25 21.75 19.9142 21.75 19.5V14.25ZM23.25 15V18.75H27V15H23.25Z" fill="#E71858"/>
<path fill-rule="evenodd" clip-rule="evenodd" d="M21.75 22.5C21.75 22.0858 22.0858 21.75 22.5 21.75H27.75C28.1642 21.75 28.5 22.0858 28.5 22.5V27.75C28.5 28.1642 28.1642 28.5 27.75 28.5H22.5C22.0858 28.5 21.75 28.1642 21.75 27.75V22.5ZM23.25 23.25V27H27V23.25H23.25Z" fill="#E71858"/>
<path fill-rule="evenodd" clip-rule="evenodd" d="M13.5 22.5C13.5 22.0858 13.8358 21.75 14.25 21.75H19.5C19.9142 21.75 20.25 22.0858 20.25 22.5V27.75C20.25 28.1642 19.9142 28.5 19.5 28.5H14.25C13.8358 28.5 13.5 28.1642 13.5 27.75V22.5ZM15 23.25V27H18.75V23.25H15Z" fill="#E71858"/>
</svg>
