<svg width="43" height="43" viewBox="0 0 43 43" fill="none" xmlns="http://www.w3.org/2000/svg">
<rect width="42.7547" height="42.7547" rx="10.3648" fill="#DCD3FF"/>
<path fill-rule="evenodd" clip-rule="evenodd" d="M15 15C14.5858 15 14.25 15.3358 14.25 15.75V23.25C14.25 23.6642 14.5858 24 15 24H27C27.4142 24 27.75 23.6642 27.75 23.25V15.75C27.75 15.3358 27.4142 15 27 15H15ZM12.75 15.75C12.75 14.5074 13.7574 13.5 15 13.5H27C28.2426 13.5 29.25 14.5074 29.25 15.75V23.25C29.25 24.4926 28.2426 25.5 27 25.5H15C13.7574 25.5 12.75 24.4926 12.75 23.25V15.75Z" fill="#886BFE"/>
<path fill-rule="evenodd" clip-rule="evenodd" d="M17.25 27.75C17.25 27.3358 17.5858 27 18 27H24C24.4142 27 24.75 27.3358 24.75 27.75C24.75 28.1642 24.4142 28.5 24 28.5H18C17.5858 28.5 17.25 28.1642 17.25 27.75Z" fill="#886BFE"/>
<path fill-rule="evenodd" clip-rule="evenodd" d="M21 24C21.4142 24 21.75 24.3358 21.75 24.75V27.75C21.75 28.1642 21.4142 28.5 21 28.5C20.5858 28.5 20.25 28.1642 20.25 27.75V24.75C20.25 24.3358 20.5858 24 21 24Z" fill="#886BFE"/>
</svg>
