<?xml version="1.0" encoding="utf-8"?>
<!-- Generator: Adobe Illustrator 22.1.0, SVG Export Plug-In . SVG Version: 6.00 Build 0)  -->
<svg version="1.1" id="Layer_1" xmlns="http://www.w3.org/2000/svg" xmlns:xlink="http://www.w3.org/1999/xlink" x="0px" y="0px"
	 viewBox="0 0 512 512" style="enable-background:new 0 0 512 512;" xml:space="preserve">
<style type="text/css">
	.st0{fill:#EDF4FC;}
	.st1{fill:#BF1F3F;}
	.st2{fill:#F9D0B4;}
	.st3{fill:#5B5D60;}
	.st4{fill:#930527;}
	.st5{fill:#FC8C48;}
</style>
<g id="Layer_64">
	<g>
		<path class="st0" d="M204.4,274.2c0,0.4-0.2,1.4-0.2,2.2v64.4c-21.6,5.4-44.6,2.4-64.2-8.4l-3.4-29l8.6-4.2
			c1.8-0.8,2.8-2.6,2.8-4.4v-23.6c10.4,4.2,21.6,6.2,32.8,6.2C188.8,277.4,196.8,276.4,204.4,274.2z"/>
		<path class="st1" d="M85.4,502.2v-59.6c0-2.8-2.2-5-5-5c-2.8,0-5,2.2-5,5V502h-58c-4,0-7.4-3.4-7.4-7.4c0-0.2,0-0.2,0-0.4
			l7.4-132.6c0.6-12.4,9.4-23,21.4-26L97,321c1.2-0.2,2.2-0.6,3.4-1l-14,51.6v0.4c-0.6,3.4,0.8,6.8,3.8,8.6l16.2,10.4L97,409.8
			c-1,1.8-1.2,4-0.6,6c0,0.2,0,0.2,0.2,0.4l31.2,86H85.4z"/>
		<path class="st1" d="M138.4,502.2V502l-32.2-88.6L116,394c2-3.8,0.6-8.6-3-10.8l-16.4-10.4l15.6-57.2c0.2,0,0.2-0.2,0.4-0.2
			l14.6-7.2l23,194H138.4z"/>
		<path class="st1" d="M204,483.8v13.6c0,1.6,0.2,3,0.8,4.4h-44.6v0.2l-18.8-158c19.6,9.2,41.6,11.6,62.8,6.8V434
			c0,5,2.2,10,5.8,13.4l-3.4,28.4C205,478.2,204,481,204,483.8z"/>
		<path class="st0" d="M243.4,452.2l-6.4,17.6h-19.6l2.2-17.8c0.8,0.2,1.8,0.2,2.6,0.2H243.4z"/>
		<polygon class="st0" points="253.8,452.8 253.8,469.8 247.6,469.8 		"/>
		<path class="st2" d="M225.2,259.3c0,0,0.1,0,0.1-0.1c-0.1,0.1-0.2,0.1-0.3,0.2C225.1,259.3,225.2,259.3,225.2,259.3z"/>
		<path class="st2" d="M225.7,259c0.1-0.1,0.2-0.1,0.3-0.2C225.9,258.9,225.8,259,225.7,259C225.7,259,225.7,259,225.7,259z"/>
		<path class="st1" d="M260.2,120.2v67.2c0,44-35.6,79.6-79.6,79.6S101,231.6,101,187.6v-26.4c0-2.2,1.8-3.8,3.8-3.8h0.2
			c45.4,2,88.2-17,113-57.6c1-1.8,3.4-2.4,5.2-1.4c0.4,0.2,0.8,0.6,1,0.8c8.4,9.6,20,15.8,32.6,17.2
			C258.6,116.6,260.2,118.2,260.2,120.2z"/>
		<path class="st3" d="M225.2,259.3c0,0,0.1,0,0.1-0.1c-0.1,0.1-0.2,0.1-0.3,0.2C225.1,259.3,225.2,259.3,225.2,259.3z"/>
		<path class="st3" d="M225.7,259c0.1-0.1,0.2-0.1,0.3-0.2C225.9,258.9,225.8,259,225.7,259C225.7,259,225.7,259,225.7,259z"/>
		<path class="st4" d="M494,452.4c10,0,18-8.2,18-18V276.6c0-10.4-8.2-18.4-18-18.4H342c-21.8-24.6-34-56.2-34-89V76
			c0-29-21-53.6-48.8-57.6c-11.2-1.6-22.6,0.2-32.6,5.2C215.8,8.8,198.8,0,180.6,0h-26.4C99.8,0,56,44,55.8,98.2v67.4
			c0,39.2-13,73.4-36.8,96.2c-5.4,5.2-5.6,13.8-0.4,19.2c0.4,0.6,1,1,1.6,1.4c10.4,7.8,31.8,20.8,59.6,19.6c9.6-0.6,19,1,28,4.2
			c-4.2,2-8.6,3.6-13.2,4.8l-58.2,14.6c-16.4,4-28,18.4-29,35.2L0,493.6c-0.6,9.6,6.8,17.8,16.4,18.4h481.2c8,0,14.4-6.4,14.4-14.4
			V484c0-7.8-6.4-14.2-14.2-14c-0.2,0-0.2,0-0.2,0h-35.2v-17.6H494z M79.4,292c-24.8,1-44-10.6-53.2-17.6c-1.6-1.2-1.8-3.4-0.6-5
			L26,269c25.6-24.6,39.8-61.4,39.8-103.4V98.2C66,49.6,105.4,10,154.2,10h26.4c16.4,0.2,31.6,8.8,40,22.8c1.4,2.4,4.4,3.2,6.8,1.8
			c9-5.4,19.8-7.6,30.2-6.2c22.8,3.2,40,23.6,40,47.6v93.2c0.2,32.2,11,63.6,31,89h-93c21.6-17,34.4-43,34.4-70.4v-67.2
			c0-7-5.2-12.8-12-13.6c-10.2-1-19.6-6-26.4-13.8c-5-5.8-13.6-6.6-19.4-1.6c-1.2,1-2.2,2-2.8,3.4c-22.8,37-62.2,54.2-104,52.4
			C97.8,147,91.2,153,91,160.6v27c0,32.8,18,63,46.8,78.8v25.2l-18.2,9C106.4,294.6,97,291.2,79.4,292z M180.6,267
			c-44,0-79.6-35.4-79.6-79.4v-26.4c0-2.2,1.8-3.8,3.8-3.8h0.2c45.4,2,88.2-17,113-57.6c1-1.8,3.4-2.4,5.2-1.4
			c0.4,0.2,0.8,0.6,1,0.8c8.4,9.6,20,15.8,32.6,17.2c1.8,0.2,3.4,1.8,3.4,3.8v67.2C260.2,231.4,224.6,267,180.6,267z M204.4,274.2
			c0,0.4-0.2,1.4-0.2,2.2v64.4c-21.6,5.4-44.6,2.4-64.2-8.4l-3.4-29l8.6-4.2c1.8-0.8,2.8-2.6,2.8-4.4v-23.6
			c10.4,4.2,21.6,6.2,32.8,6.2C188.8,277.4,196.8,276.4,204.4,274.2z M85.4,502.2v-59.6c0-2.8-2.2-5-5-5c-2.8,0-5,2.2-5,5V502h-58
			c-4,0-7.4-3.4-7.4-7.4c0-0.2,0-0.2,0-0.4l7.4-132.6c0.6-12.4,9.4-23,21.4-26L97,321c1.2-0.2,2.2-0.6,3.4-1l-14,51.6v0.4
			c-0.6,3.4,0.8,6.8,3.8,8.6l16.2,10.4L97,409.8c-1,1.8-1.2,4-0.6,6c0,0.2,0,0.2,0.2,0.4l31.2,86H85.4z M138.4,502.2V502l-32.2-88.6
			L116,394c2-3.8,0.6-8.6-3-10.8l-16.4-10.4l15.6-57.2c0.2,0,0.2-0.2,0.4-0.2l14.6-7.2l23,194H138.4z M206.6,475.8
			c-1.6,2.4-2.6,5.2-2.6,8v13.6c0,1.6,0.2,3,0.8,4.4h-44.6v0.2l-18.8-158c19.6,9.2,41.6,11.6,62.8,6.8V434c0,5,2.2,10,5.8,13.4
			L206.6,475.8z M497.8,479.8c2.4-0.2,4.4,1.6,4.4,3.8c-0.2,0.2-0.2,0.2-0.2,0.2v13.6c0,2.4-2,4.4-4.4,4.4h-279
			c-2.4,0-4.4-2-4.4-4.4v-13.6c0-2.4,2-4.2,4.4-4H497.8z M217.4,469.8l2.2-17.8c0.8,0.2,1.8,0.2,2.6,0.2h21.2l-6.4,17.6H217.4z
			 M247.6,469.8l6.2-17v17H247.6z M452.2,403.6v66.2H263.8v-66.2c0-1.2,1-2.2,2.2-2.2h184C451.2,401.4,452.2,402.4,452.2,403.6z
			 M450.2,391.2h-184c-6.8,0-12.2,5.4-12.2,12.2v38.8h-31.6c-4.4,0-8-3.6-8-8V276.4c0-4.4,3.6-8,8-8H494c4.4,0,8,3.6,8,8v157.8
			c0,4.4-3.6,8-8,8h-31.6v-38.8C462.4,396.6,457,391.2,450.2,391.2z"/>
		<path class="st1" d="M270,187.8v-67.2c0-7-5.2-12.8-12-13.6c-10.2-1-19.6-6-26.4-13.8c-5-5.8-13.6-6.6-19.4-1.6
			c-1.2,1-2.2,2-2.8,3.4c-22.8,37-62.2,54.2-104,52.4C97.8,147,91.2,153,91,160.6v27c0,32.8,18,63,46.8,78.8v25.2l-18.2,9
			c-13.2-6-22.6-9.4-40.2-8.6c-24.8,1-44-10.6-53.2-17.6c-1.6-1.2-1.8-3.4-0.6-5L26,269c25.6-24.6,39.8-61.4,39.8-103.4V98.2
			C66,49.6,105.4,10,154.2,10h26.4c16.4,0.2,31.6,8.8,40,22.8c1.4,2.4,4.4,3.2,6.8,1.8c9-5.4,19.8-7.6,30.2-6.2
			c22.8,3.2,40,23.6,40,47.6v93.2c0.2,32.2,11,63.6,31,89h-93C257.2,241.2,270,215.2,270,187.8z"/>
		<path class="st1" d="M204.4,274.2c0,0.4-0.2,1.4-0.2,2.2v64.4c-21.6,5.4-44.6,2.4-64.2-8.4l-3.4-29l8.6-4.2
			c1.8-0.8,2.8-2.6,2.8-4.4v-23.6c10.4,4.2,21.6,6.2,32.8,6.2C188.8,277.4,196.8,276.4,204.4,274.2z"/>
		<path class="st5" d="M243.4,452.2l-6.4,17.6h-19.6l2.2-17.8c0.8,0.2,1.8,0.2,2.6,0.2H243.4z"/>
		<polygon class="st1" points="253.8,452.8 253.8,469.8 247.6,469.8 		"/>
		<path class="st1" d="M243.4,452.2l-6.4,17.6h-19.6l2.2-17.8c0.8,0.2,1.8,0.2,2.6,0.2H243.4z"/>
		<circle class="st1" cx="418.8" cy="230.8" r="6.2"/>
		<circle class="st1" cx="338.8" cy="126.8" r="6.2"/>
		<circle class="st1" cx="20.8" cy="66.8" r="6.2"/>
		<path class="st1" d="M387,207.8c-8.6,1.6-15.6,8.2-17.2,17c0,0.2-0.2,0.4-0.4,0.4s-0.2-0.2-0.4-0.4c-1.8-8.6-8.6-15.4-17.2-17
			c-0.2,0-0.4-0.2-0.4-0.4s0.2-0.2,0.4-0.4c8.6-1.6,15.6-8.2,17.2-17c0-0.2,0.2-0.4,0.4-0.4s0.2,0.2,0.4,0.4
			c1.8,8.6,8.6,15.4,17.2,17c0.2,0,0.4,0.2,0.4,0.4S387.2,207.8,387,207.8z"/>
		<path class="st1" d="M56.8,10h-4.2V5.8C52.6,2.6,50,0,46.8,0S41,2.6,41,5.8V10h-4.2c-3.2,0-5.8,2.6-5.8,5.8s2.6,5.8,5.8,5.8H41V26
			c0,3.2,2.6,5.8,5.8,5.8s5.8-2.6,5.8-5.8v-4.2h4.2c3.2,0,5.8-2.6,5.8-5.8S60,10,56.8,10z"/>
		<path class="st1" d="M502.2,483.6c-0.2,0.2-0.2,0.2-0.2,0.2v13.6c0,2.4-2,4.4-4.4,4.4h-279c-2.4,0-4.4-2-4.4-4.4v-13.6
			c0-2.4,2-4.2,4.4-4h279.2C500.2,479.6,502.2,481.4,502.2,483.6z"/>
		<path class="st1" d="M452.2,403.6v66.2H263.8v-66.2c0-1.2,1-2.2,2.2-2.2h184C451.2,401.4,452.2,402.4,452.2,403.6z"/>
		<path class="st1" d="M502,276.4v157.8c0,4.4-3.6,8-8,8h-31.6v-38.8c0-6.8-5.4-12.2-12.2-12.2h-184c-6.8,0-12.2,5.4-12.2,12.2v38.8
			h-31.6c-4.4,0-8-3.6-8-8V276.4c0-4.4,3.6-8,8-8H494C498.4,268.4,502,272,502,276.4z"/>
		<path class="st4" d="M297.4,311.4c-2.8,0-5,2.2-5,5v20.8c0,2.8,2.2,5,5,5s5-2.2,5-5v-20.8C302.4,313.8,300.2,311.4,297.4,311.4z"
			/>
		<path class="st4" d="M273.2,311.4c-2.8,0-5,2.2-5,5v20.8c0,2.8,2.2,5,5,5s5-2.2,5-5v-20.8C278.2,313.8,276,311.4,273.2,311.4z"/>
		<path class="st4" d="M321.6,311.4c-2.8,0-5,2.2-5,5v20.8c0,2.8,2.2,5,5,5s5-2.2,5-5v-20.8C326.6,313.8,324.4,311.4,321.6,311.4z"
			/>
		<path class="st4" d="M346,311.4c-2.8,0-5,2.2-5,5v20.8c0,2.8,2.2,5,5,5s5-2.2,5-5v-20.8C351,313.8,348.6,311.4,346,311.4z"/>
		<path class="st4" d="M370.2,311.4c-2.8,0-5,2.2-5,5v20.8c0,2.8,2.2,5,5,5s5-2.2,5-5v-20.8C375.2,313.8,373,311.4,370.2,311.4z"/>
		<path class="st4" d="M394.4,311.4c-2.8,0-5,2.2-5,5v20.8c0,2.8,2.2,5,5,5s5-2.2,5-5v-20.8C399.4,313.8,397.2,311.4,394.4,311.4z"
			/>
		<path class="st4" d="M418.6,311.4c-2.8,0-5,2.2-5,5v20.8c0,2.8,2.2,5,5,5s5-2.2,5-5v-20.8C423.6,313.8,421.4,311.4,418.6,311.4z"
			/>
		<path class="st4" d="M443,311.4c-2.8,0-5,2.2-5,5v20.8c0,2.8,2.2,5,5,5s5-2.2,5-5v-20.8C448,313.8,445.8,311.4,443,311.4z"/>
	</g>
</g>
</svg>
