<svg width="1920" height="928" viewBox="0 0 1920 928" fill="none" xmlns="http://www.w3.org/2000/svg">
<mask id="mask0" mask-type="alpha" maskUnits="userSpaceOnUse" x="0" y="0" width="1920" height="928">
<rect width="1920" height="928" fill="#C4C4C4"/>
</mask>
<g mask="url(#mask0)">
<path d="M1563.62 184.035C1550.58 183.455 1538.41 190.121 1532.03 201.712C1531.45 202.871 1538.7 212.145 1539.57 213.594C1541.31 216.492 1543.05 219.1 1545.07 221.708C1545.36 221.998 1547.39 224.896 1547.39 225.186C1553.77 213.884 1565.94 206.929 1578.98 207.508C1578.69 207.508 1576.66 203.741 1576.95 204.031C1575.21 201.133 1573.47 198.525 1571.44 195.627C1569.71 192.729 1567.97 190.121 1565.94 187.512C1565.36 186.933 1563.91 184.035 1563.62 184.035Z" fill="#E71858"/>
<g opacity="0.4">
<path d="M1315.05 734.898C1300.85 743.012 1291.86 757.791 1290.99 774.02C1290.99 774.31 1294.18 776.918 1294.18 776.918C1296.79 779.236 1299.11 781.265 1301.72 783.293C1304.32 785.322 1306.64 787.64 1309.25 789.669C1309.83 789.958 1312.44 791.987 1312.44 792.277C1313.6 776.048 1322.58 761.269 1336.49 753.155C1335.91 753.444 1326.93 744.751 1326.06 743.881C1324.61 743.302 1315.91 734.608 1315.05 734.898Z" fill="#FFBC02"/>
</g>
<path d="M1769.73 566.779C1778.71 565.91 1786.83 560.694 1790.88 552.58C1790.88 552.29 1790.02 550.261 1790.02 550.551C1789.15 548.812 1788.57 547.073 1787.7 545.625C1786.83 543.886 1786.25 542.147 1785.38 540.698C1785.09 540.408 1784.22 538.959 1784.51 538.669C1780.16 546.494 1772.34 552 1763.35 552.869C1763.64 552.869 1766.25 559.245 1766.54 559.824C1766.83 560.114 1769.15 566.779 1769.73 566.779Z" fill="#FFBC02"/>
<path d="M1855.51 279.915C1853.77 283.393 1852.32 286.87 1850.58 290.637C1850.58 290.927 1858.99 295.274 1858.99 295.564C1860.73 292.086 1862.18 288.609 1863.91 284.842C1863.91 284.262 1855.51 279.915 1855.51 279.915Z" fill="#3CBEB2"/>
<g opacity="0.4">
<path d="M1405.82 828.362C1403.22 837.636 1400.61 846.909 1398 856.182C1398 855.893 1406.4 856.182 1407.27 856.182C1408.14 856.182 1416.55 856.472 1416.55 855.893C1419.15 846.619 1421.76 837.346 1424.37 828.072C1424.37 828.362 1415.97 828.072 1415.1 828.072C1414.23 828.072 1405.82 827.783 1405.82 828.362Z" fill="#3CBEB2"/>
</g>
<path d="M1828.27 795.168C1818.71 794.299 1809.14 793.719 1799.29 792.85C1799.58 792.85 1801.03 801.254 1801.03 802.123C1801.32 802.992 1802.48 811.107 1803.06 811.396C1812.62 812.266 1822.18 812.845 1832.04 813.715C1831.75 813.715 1830.3 805.311 1830.3 804.441C1830.3 803.282 1828.85 795.168 1828.27 795.168Z" fill="#FFBC02"/>
<g opacity="0.4">
<path d="M1700.33 542.518C1691.64 537.012 1682.65 531.506 1673.96 526C1674.25 526.29 1672.22 534.404 1671.93 534.984C1671.64 535.853 1669.32 543.677 1670.19 544.257C1678.89 549.763 1687.87 555.269 1696.56 560.775C1696.27 560.485 1698.3 552.371 1698.59 551.792C1698.59 550.922 1700.91 542.808 1700.33 542.518Z" fill="#35C635"/>
</g>
<g opacity="0.4">
<path d="M1909.33 409.478C1900.05 408.318 1890.49 407.159 1881.22 406C1880.06 406 1876.87 423.967 1876 423.967C1885.27 425.126 1894.84 426.286 1904.11 427.445C1905.27 427.445 1908.46 409.478 1909.33 409.478Z" fill="#35C635"/>
</g>
<g opacity="0.4">
<path d="M1579.58 309.612C1571.76 307.584 1563.65 309.902 1558.43 315.988C1557.56 316.857 1558.14 321.783 1558.14 322.943C1558.14 324.681 1558.14 326.13 1558.14 327.869C1558.14 328.159 1558.43 329.608 1558.14 329.898C1563.36 323.812 1571.47 321.204 1579.29 323.522C1578.42 323.232 1580.74 309.902 1579.58 309.612Z" fill="#30D6AF"/>
</g>
<path d="M1664.54 2.87231C1660.19 7.50901 1659.32 14.1743 1662.51 19.3905C1662.8 19.9701 1668.88 18.811 1669.46 18.811C1670.04 18.811 1676.13 17.6518 1676.42 18.2314C1673.23 12.7253 1674.1 6.06004 1678.45 1.71313C1678.45 1.71313 1676.13 1.71313 1676.42 1.71313C1674.68 1.71313 1673.23 2.00293 1671.49 2.00293C1669.75 2.00293 1668.3 2.29272 1666.56 2.29272C1666.27 2.58252 1664.83 2.58252 1664.54 2.87231Z" fill="#3CBEB2"/>
<g opacity="0.4">
<path d="M1530.94 679.51C1523.7 679.8 1517.32 683.567 1512.97 689.363C1512.68 689.653 1516.74 694.579 1517.03 694.869C1517.32 695.448 1521.38 700.085 1521.38 700.375C1525.44 694.289 1532.1 690.812 1539.35 690.522C1538.77 690.522 1535.58 685.595 1535.29 685.016C1534.42 684.436 1531.81 679.51 1530.94 679.51Z" fill="#30D6AF"/>
</g>
<path d="M1703.66 429.564C1705.98 424.058 1708 418.552 1710.32 413.336C1710.03 413.915 1697.86 409.568 1697.57 410.438C1695.25 415.944 1693.23 421.45 1690.91 426.666C1691.2 426.086 1703.37 430.433 1703.66 429.564Z" fill="#35C635"/>
<path d="M1409.96 184C1400.68 184.869 1391.41 185.739 1382.14 186.608C1381.56 186.608 1383.01 205.155 1382.72 205.155C1391.99 204.286 1401.26 203.416 1410.54 202.547C1411.12 202.837 1409.96 184 1409.96 184Z" fill="#30D6AF"/>
<path d="M1797.55 211.234C1798.42 203.12 1799.29 194.716 1800.16 186.602C1800.16 186.312 1786.25 184.283 1786.25 184.283C1785.38 192.397 1784.51 200.801 1783.64 208.916C1783.64 209.205 1797.55 210.944 1797.55 211.234Z" fill="#FFBC02"/>
<path d="M1887.09 70.1047C1882.74 65.7578 1878.4 61.1211 1874.05 56.7742C1874.34 57.064 1864.78 67.2067 1865.07 67.4965C1869.41 71.8434 1873.76 76.4801 1878.11 80.827C1877.82 80.5372 1887.38 70.3945 1887.09 70.1047Z" fill="#35C635"/>
<path d="M1617.59 127.795C1610.92 124.317 1603.97 120.84 1597.3 117.652C1596.15 117.072 1589.19 128.664 1588.03 128.084C1594.7 131.562 1601.65 135.04 1608.32 138.227C1609.48 138.807 1616.72 127.215 1617.59 127.795Z" fill="#35C635"/>
<path d="M1482.26 73.3205C1483.99 78.247 1485.44 83.4632 1487.18 88.3897L1492.98 86.3612C1491.24 81.4347 1489.79 76.2184 1488.05 71.2919C1488.05 71.0021 1482.26 73.0307 1482.26 73.3205Z" fill="#3CBEB2"/>
<path d="M1559.33 -46.7131C1554.11 -15.995 1524.26 7.18845 1493.54 6.89866C1477.32 6.89865 1461.67 0.812985 1448.63 -8.7502C1445.73 -10.7788 1442.83 -13.3869 1440.22 -15.7052C1439.35 -16.5746 1434.43 -21.7909 1439.64 -15.995C1444.28 -10.7788 1441.09 -14.2563 1440.22 -15.7052C1438.77 -17.7338 1437.32 -19.7624 1435.87 -21.7909C1431.24 -29.3255 1427.18 -38.0193 1426.31 -47.0029C1425.15 -56.5661 1428.05 -65.8395 1435.87 -71.6354C1439.06 -73.9537 1442.54 -75.4027 1446.31 -75.6925C1448.34 -75.9823 1450.07 -75.6925 1452.1 -75.1129C1455.29 -73.9537 1459.93 -69.317 1453.26 -76.8517C1452.1 -78.0109 1450.94 -79.4598 1450.07 -80.619C1461.96 -64.9701 1447.76 -47.5825 1434.72 -38.8887C1422.54 -30.7745 1407.76 -26.4276 1393.28 -25.2684C1378.79 -24.3991 1363.72 -27.0072 1350.39 -32.5133C1343.72 -35.4112 1337.34 -38.8887 1331.55 -43.2356C1328.65 -45.554 1325.75 -47.8723 1323.15 -50.4805C1322.28 -51.3499 1321.7 -52.2192 1320.83 -52.7988C1320.25 -53.3784 1328.07 -44.105 1325.17 -48.1621C1323.72 -49.9009 1322.28 -51.6397 1321.12 -53.6682C1312.13 -67.5783 1305.18 -90.1822 1321.12 -102.064C1326.62 -106.121 1334.45 -108.149 1341.11 -104.962C1341.98 -104.672 1342.27 -104.092 1343.14 -103.802C1348.36 -100.905 1336.19 -113.945 1337.92 -109.888C1338.5 -108.439 1339.37 -106.99 1339.66 -105.541C1340.53 -102.064 1340.24 -98.2964 1339.08 -94.8189C1333.58 -76.5619 1313 -75.6925 1297.93 -81.7782C1280.26 -89.3128 1267.79 -104.962 1250.41 -112.786C1217.08 -127.566 1175.06 -119.162 1150.72 -91.921C1150.14 -91.3414 1160.28 -81.7782 1159.99 -81.4884C1177.96 -101.484 1205.2 -111.337 1231.57 -109.309C1244.61 -108.149 1257.65 -104.382 1268.66 -97.427C1282.57 -89.023 1293.88 -76.2721 1309.23 -70.4762C1321.99 -65.8395 1338.5 -66.1293 1346.04 -79.17C1348.94 -84.0965 1350.1 -90.1822 1348.65 -95.3985C1346.91 -101.194 1341.4 -105.831 1337.63 -110.178C1334.16 -114.235 1329.81 -116.843 1324.3 -116.553C1318.22 -116.264 1312.42 -113.366 1308.37 -109.019C1297.64 -97.1372 1302.86 -79.17 1310.1 -66.9987C1316.19 -56.8559 1324.59 -47.2927 1333.29 -39.1785C1341.98 -31.0643 1352.41 -24.6888 1363.72 -20.6317C1386.32 -12.2277 1412.4 -12.5175 1434.43 -22.6603C1446.31 -28.1664 1459.64 -37.4398 1463.12 -51.0601C1466.3 -63.811 1457.61 -74.2435 1448.63 -82.3578C1438.48 -91.3414 1423.41 -83.5169 1418.78 -72.5048C1412.69 -58.0151 1420.81 -40.6275 1429.21 -28.746C1444.86 -6.72165 1466.88 12.6945 1494.41 16.1721C1521.36 19.3598 1549.18 5.44969 1562.22 -18.6032C1565.41 -24.399 1567.44 -30.4847 1568.31 -36.8602C1568.6 -37.7295 1564.25 -41.4969 1563.67 -42.0765C1563.38 -42.0765 1559.04 -45.8438 1559.33 -46.7131Z" fill="#FFBC02"/>
<g opacity="0.4">
<path d="M1757.18 898.905C1758.63 886.444 1752.84 874.852 1743.56 866.738C1733.13 857.175 1720.09 852.538 1706.47 850.509C1679.23 846.452 1649.38 850.509 1625.62 833.991C1615.76 827.036 1608.81 816.893 1607.36 804.432C1605.91 791.391 1609.39 778.351 1611.71 765.6C1614.02 753.139 1615.18 739.808 1609.68 727.927C1604.46 716.625 1594.61 708.51 1585.05 701.266C1574.03 692.862 1562.44 685.037 1554.91 672.866C1547.66 661.564 1544.18 647.074 1552.88 635.193C1552.59 635.772 1546.79 634.903 1545.92 634.613C1545.05 634.613 1539.55 633.454 1538.97 634.323C1531.72 644.176 1533.17 656.637 1538.39 667.07C1544.18 678.662 1553.46 686.776 1563.6 694.6C1573.45 702.135 1583.89 709.09 1591.13 719.233C1598.96 729.665 1600.69 742.127 1599.25 754.877C1596.35 779.22 1584.47 807.04 1604.75 827.326C1623.88 846.452 1652.86 846.162 1678.07 847.901C1694.59 849.06 1711.69 851.669 1725.6 862.101C1736.9 870.505 1745.01 883.256 1743.27 898.035C1743.27 898.035 1757.18 899.484 1757.18 898.905Z" fill="#3CBEB2"/>
</g>
<path d="M1769.44 660.962C1767.41 662.411 1766.54 664.44 1766.83 666.758C1766.83 667.048 1768.86 667.628 1769.15 667.628C1769.44 667.628 1771.47 668.207 1771.47 668.497C1771.18 666.179 1772.05 663.86 1774.08 662.701C1773.79 662.701 1772.05 661.832 1771.76 661.832C1771.47 661.832 1769.73 660.962 1769.44 660.962Z" fill="#FFBC02"/>
<g opacity="0.4">
<path d="M1588.61 488.566C1582.81 491.464 1577.31 494.362 1571.51 497.26C1570.93 497.55 1570.93 503.346 1570.64 504.215C1570.64 505.085 1570.64 510.881 1570.06 511.17C1575.86 508.272 1581.36 505.374 1587.16 502.477C1587.74 502.187 1587.74 496.391 1588.03 495.521C1588.32 494.652 1588.03 488.856 1588.61 488.566Z" fill="#FFBC02"/>
</g>
<g opacity="0.4">
<path d="M1647.15 618.942C1642.8 625.028 1638.45 631.404 1634.11 637.489C1633.24 638.648 1643.96 647.342 1643.09 648.212C1647.44 642.126 1651.79 635.75 1656.13 629.665C1656.71 628.506 1646.57 619.812 1647.15 618.942Z" fill="#3CBEB2"/>
</g>
<path d="M489.423 -37.9206C471.746 -41.9778 453.199 -46.3247 434.942 -44.0063C426.828 -42.8471 418.713 -40.5288 411.758 -36.1819C404.803 -32.1248 399.587 -26.3289 394.661 -19.9534C390.024 -13.8678 385.677 -7.49232 378.722 -3.43521C370.898 1.20148 361.334 1.20148 352.641 2.94024C338.151 5.54838 326.559 14.532 321.053 27.8625C314.967 42.3522 318.445 57.1316 323.661 71.3315C321.922 66.9846 321.633 62.3479 319.894 58.001C319.894 58.001 323.082 71.6213 321.633 64.3765C321.633 63.7969 321.633 63.2173 321.343 62.6377C321.053 61.1887 321.053 59.7398 321.053 58.2908C321.053 55.1031 321.343 51.6256 322.212 48.4378C323.661 42.3522 326.269 36.5563 330.037 31.9196C333.804 26.9931 338.441 22.936 343.947 20.0381C350.612 16.8503 357.857 15.981 365.102 15.1116C372.926 13.9524 380.461 12.2136 386.546 6.99735C391.763 2.36066 395.82 -3.43521 400.167 -8.94129C409.44 -20.8228 422.191 -27.4881 436.971 -29.8064C455.807 -32.7044 474.644 -28.3575 493.19 -24.0106C492.611 -24.0106 491.452 -30.0962 491.452 -30.6758C491.162 -31.835 490.003 -37.6308 489.423 -37.9206Z" fill="#886BFE"/>
<path d="M238.172 350.956C236.723 337.335 223.393 327.192 209.773 329.511C205.426 330.38 200.789 332.409 196.442 333.858C192.095 335.307 187.748 337.625 183.401 338.494C196.732 336.176 210.352 346.319 211.801 359.939C211.801 359.649 223.972 355.882 225.132 355.592C226.001 355.302 238.172 351.825 238.172 350.956Z" fill="#E71858"/>
<path d="M445.203 247.457C431.872 242.82 417.672 244.849 406.08 252.673C405.791 252.963 406.37 257.31 406.37 256.73C406.66 259.918 406.66 263.396 406.95 266.583C407.24 269.771 407.24 273.249 407.529 276.436C407.529 277.016 408.109 280.493 407.819 280.493C419.411 272.669 433.901 270.641 446.941 275.277C446.362 274.987 446.362 262.526 446.362 261.367C445.782 259.918 446.072 247.747 445.203 247.457Z" fill="#30D6AF"/>
<path d="M89.2184 134.734C95.3041 141.689 101.39 148.934 107.475 155.889C107.765 156.179 122.255 144.297 122.255 144.587C116.169 137.632 110.084 130.387 103.998 123.432C103.708 123.142 89.5082 135.024 89.2184 134.734Z" fill="#886BFE"/>
<path d="M93.2289 22.5783C87.1432 20.5498 81.0576 18.2314 74.6821 16.2029C74.9719 16.2029 73.5229 24.6069 73.5229 25.4763C73.5229 26.3456 72.0739 34.4599 72.6535 34.7497C78.7392 36.7782 84.8248 39.0966 91.2003 41.1251C90.9105 41.1251 92.3594 32.7211 92.3594 31.8517C92.3594 30.9823 93.5187 22.5783 93.2289 22.5783Z" fill="#30D6AF"/>
<path d="M361.609 499.289C369.433 501.317 377.547 503.346 385.372 505.664C385.372 505.664 389.139 492.334 388.849 492.044C381.025 490.015 372.911 487.987 365.086 485.668C365.086 485.668 361.319 499.289 361.609 499.289Z" fill="#3CBEB2"/>
<path d="M175.577 459.587C175.577 463.934 175.577 468.281 175.577 472.628C175.577 472.917 181.662 474.366 182.242 474.366C182.822 474.366 188.907 475.815 188.907 476.105C188.907 471.758 188.907 467.411 188.907 463.064C188.907 462.775 182.822 461.326 182.242 461.326C181.952 461.036 175.577 459.877 175.577 459.587Z" fill="#886BFE"/>
<path d="M247.446 604.758C241.07 611.134 239.042 620.407 241.94 629.101C242.23 629.68 248.025 629.97 248.895 630.26C249.474 630.26 255.56 630.55 255.85 631.129C252.952 622.436 255.27 613.452 261.356 606.787C260.776 607.366 255.27 605.917 254.401 605.628C253.532 605.338 248.315 603.889 247.446 604.758Z" fill="#FFBC02"/>
<path d="M434.652 100.248C429.436 103.726 424.51 107.493 419.583 110.971C419.873 110.681 428.567 121.693 428.857 121.403C434.073 117.926 438.999 114.158 443.926 110.681C443.636 110.971 434.942 99.9585 434.652 100.248Z" fill="#3CBEB2"/>
<path d="M98.4918 335.014C96.753 337.332 95.0142 339.651 93.5653 341.969C93.5653 341.969 96.4632 343.128 96.753 343.418C97.0428 343.418 99.9407 344.867 99.9407 344.577C101.68 342.259 103.418 339.94 104.867 337.622C104.867 337.622 101.969 336.463 101.679 336.173C101.39 336.173 98.7816 334.724 98.4918 335.014Z" fill="#3CBEB2"/>
<path d="M297.87 167.212C295.551 175.327 292.943 183.441 290.625 191.555C290.915 190.396 308.882 194.453 309.172 193.004C311.49 184.89 314.098 176.776 316.417 168.661C316.127 169.82 298.16 165.763 297.87 167.212Z" fill="#3CBEB2"/>
<path d="M106.164 420C102.686 426.665 99.2085 433.62 96.0208 440.286C95.4412 441.445 107.033 448.4 106.453 449.559C109.931 442.894 113.408 435.939 116.596 429.273C117.176 428.114 105.584 420.869 106.164 420Z" fill="#3CBEB2"/>
<path d="M562.194 759.29C552.92 770.012 540.459 785.951 549.733 800.73C553.5 806.816 560.165 807.685 566.541 808.555C571.467 809.424 577.263 807.396 579.871 803.049C583.928 796.673 579.292 790.008 573.496 787.11C570.598 785.661 567.41 785.081 564.222 784.212C560.745 783.632 557.267 782.763 553.5 782.473C537.561 781.604 521.043 785.661 506.843 793.485C499.598 797.543 492.933 802.469 487.137 808.265C481.921 813.481 476.705 819.857 474.676 827.391C472.937 834.346 474.097 842.461 479.313 847.387C481.341 849.416 483.95 850.575 486.847 851.154C490.035 851.734 493.223 852.893 496.411 852.893C501.627 852.893 507.133 848.836 508.292 843.33C509.741 837.244 504.815 832.897 499.598 831.448C493.223 829.999 486.558 828.55 480.182 829.999C472.648 831.738 465.403 835.795 459.027 839.563C444.827 848.256 432.946 860.718 424.542 875.497C417.007 888.538 413.53 907.954 398.46 913.75C397.011 914.329 395.273 914.619 393.824 914.909C392.954 914.909 392.375 914.909 391.505 914.909C390.346 915.199 395.852 915.778 395.852 915.778C395.563 915.489 394.693 915.199 394.403 915.199C391.795 914.04 388.607 914.619 385.999 913.46C388.897 914.619 392.085 915.199 395.273 915.778C397.881 916.358 400.489 916.648 403.097 916.068C409.183 914.909 414.109 911.142 417.877 906.215C422.513 900.129 424.832 892.885 428.019 885.93C431.207 878.685 435.264 872.019 440.191 865.644C449.464 853.473 461.346 843.62 474.386 836.665C480.182 833.477 486.558 830.579 493.223 830.289C494.382 830.289 495.831 830.289 496.99 830.289C490.905 830.289 490.905 828.84 493.513 829.71C494.092 829.999 494.672 830.289 495.251 830.579C497.57 832.028 499.309 834.346 499.598 837.244C500.468 842.171 496.99 846.807 492.643 849.126C491.774 849.705 490.615 849.995 489.456 850.285C488.876 850.285 488.296 850.285 487.717 850.575C484.529 850.865 494.672 852.893 491.484 851.154C488.586 849.416 486.268 847.677 484.819 844.779C476.994 831.448 486.558 817.249 495.831 808.265C506.264 798.122 519.304 790.587 533.214 786.53C540.459 784.502 547.994 783.343 555.529 783.053C556.977 783.053 558.716 783.053 560.165 783.053C561.035 783.053 561.904 783.053 562.773 783.343C568.279 783.922 557.847 781.604 561.324 783.053C564.512 784.212 567.7 785.661 570.018 788.559C574.075 793.485 572.626 800.44 567.41 803.918C565.092 805.367 562.484 805.947 559.586 806.236C556.108 806.526 566.83 808.555 563.643 807.106C562.773 806.816 561.904 806.236 561.324 805.657C560.165 804.787 558.716 803.628 557.847 802.179C553.5 796.383 553.21 787.979 555.239 781.024C557.847 772.62 563.933 766.245 569.439 759.869C569.149 760.159 565.671 759 565.381 759C565.671 759.869 562.484 759 562.194 759.29Z" fill="#30D6AF"/>
<path d="M563.84 717.503C558.913 723.009 553.987 728.805 549.06 734.311C548.48 734.891 552.248 742.136 552.827 742.715C553.117 743.585 557.174 750.54 556.595 751.119C561.521 745.613 566.448 739.818 571.374 734.311C571.954 733.732 568.186 726.487 567.607 725.907C567.317 725.038 563.26 718.083 563.84 717.503Z" fill="#FFBC02"/>
<path d="M421.84 569.032C419.232 581.203 406.191 585.84 394.889 584.97C391.991 584.681 389.383 584.101 386.775 583.232C385.615 582.652 384.166 582.362 383.007 581.493C382.138 580.913 381.269 580.334 380.399 580.044C392.57 586.999 388.513 586.419 385.036 583.232C379.53 578.015 375.183 571.93 371.126 565.554C363.301 553.383 356.346 541.211 344.465 532.228C333.742 524.114 322.44 514.84 308.241 517.448C286.796 521.506 276.363 546.138 255.208 550.775C249.123 552.224 242.747 551.064 236.951 548.456C235.213 547.877 233.764 547.007 232.315 546.138C226.229 542.371 233.184 547.297 234.053 547.587C233.184 547.007 232.315 546.138 231.735 545.558C228.837 543.24 225.649 540.922 222.752 538.603C211.739 530.489 200.727 522.665 186.238 523.244C149.144 524.983 131.467 562.077 119.005 591.636C118.716 592.795 130.597 599.17 130.307 600.04C141.609 572.799 155.809 541.791 187.107 533.097C193.482 531.359 200.437 530.779 206.813 531.938C210.001 532.518 212.899 533.387 215.796 534.836C217.535 535.705 219.274 536.575 221.013 537.734C221.882 538.314 225.939 541.211 221.592 537.734C217.245 534.546 220.433 536.865 221.303 537.734C227.388 542.371 233.184 546.718 239.27 551.064C244.776 554.832 250.572 558.02 257.237 559.179C279.841 562.077 293.171 537.154 310.849 528.461C316.065 525.852 321.861 524.693 327.657 525.273C330.844 525.563 334.322 526.722 337.22 528.171C338.959 528.75 345.334 533.097 339.538 529.04C333.742 524.983 340.118 530.199 341.277 531.648C351.71 542.66 357.505 556.571 366.779 568.162C371.416 574.248 377.211 578.595 383.587 583.232C389.093 587.289 394.309 591.056 400.975 592.795C413.146 595.403 428.795 591.056 431.982 577.436C431.982 576.856 427.056 573.668 426.476 573.089C426.766 572.799 421.55 569.611 421.84 569.032Z" fill="#FFBC02"/>
<path d="M429.321 713.446C418.598 707.07 407.586 700.695 396.864 694.319C398.023 694.899 384.982 719.531 386.431 720.401C397.154 726.776 408.166 733.152 418.888 739.527C418.019 738.658 430.77 714.315 429.321 713.446Z" fill="#FFBC02"/>
<path d="M130.958 881.62C119.656 881.62 109.223 876.694 101.979 868C102.848 868.869 100.819 875.824 100.53 877.273C100.24 879.302 99.9501 881.62 99.3705 883.649C99.3705 884.228 98.7909 885.967 99.0807 886.257C106.326 894.951 116.758 900.167 128.06 899.877C129.219 900.167 130.089 881.62 130.958 881.62Z" fill="#3CBEB2"/>
<path d="M304.75 823.568C294.028 817.192 283.016 810.817 272.293 804.441C273.452 805.021 260.412 829.653 261.861 830.523C272.583 836.898 283.595 843.274 294.318 849.649C293.158 849.07 305.909 824.437 304.75 823.568Z" fill="#FFBC02"/>
<path d="M65.7449 658.37C53.5736 654.023 39.6634 658.08 32.1288 668.512C31.839 669.092 32.1288 672.57 32.1288 672.57C32.1288 675.757 32.4186 679.235 32.7084 682.422C32.9982 685.61 32.9982 689.088 33.288 692.275C33.288 693.145 33.8676 695.753 33.5778 696.333C41.1124 685.9 55.0225 681.553 67.1938 686.19C66.6143 685.9 66.6142 673.439 66.6142 672.28C66.3244 669.092 66.3245 665.614 66.0347 662.427C66.0347 662.137 66.0347 658.37 65.7449 658.37Z" fill="#3CBEB2"/>
<g opacity="0.4">
<path d="M1054.84 52.8726C1050.49 57.5093 1049.63 64.1745 1052.81 69.3908C1053.1 69.9704 1059.19 68.8112 1059.77 68.8112C1060.35 68.8112 1066.43 67.652 1066.72 68.2316C1063.54 62.7255 1064.41 56.0603 1068.75 51.7134C1068.75 51.7134 1066.43 51.7134 1066.72 51.7134C1064.98 51.7134 1063.54 52.0032 1061.8 52.0032C1060.06 52.0032 1058.61 52.293 1056.87 52.293C1056.58 52.5828 1055.13 52.5828 1054.84 52.8726Z" fill="#3CBEB2"/>
</g>
<g opacity="0.4">
<path d="M1207.85 16.938C1199.74 16.938 1191.33 16.938 1183.22 16.938C1183.22 16.938 1182.93 30.8481 1183.22 30.8481C1191.33 30.8481 1199.74 30.8481 1207.85 30.8481L1207.85 16.938Z" fill="#E71858"/>
</g>
<g opacity="0.4">
<path d="M1277.4 120.104C1273.05 115.758 1268.7 111.121 1264.36 106.774C1264.64 107.064 1255.08 117.206 1255.37 117.496C1259.72 121.843 1264.07 126.48 1268.41 130.827C1268.12 130.537 1277.69 120.394 1277.4 120.104Z" fill="#35C635"/>
</g>
<g opacity="0.4">
<path d="M949.632 3.28685C944.416 34.005 914.567 57.1885 883.849 56.8987C867.621 56.8987 851.972 50.813 838.931 41.2498C836.033 39.2212 833.135 36.6131 830.527 34.2948C829.658 33.4254 824.731 28.2091 829.948 34.005C834.584 39.2212 831.397 35.7437 830.527 34.2948C829.078 32.2662 827.629 30.2376 826.18 28.2091C821.544 20.6745 817.487 11.9807 816.617 2.99705C815.458 -6.56613 818.356 -15.8395 826.18 -21.6354C829.368 -23.9537 832.846 -25.4027 836.613 -25.6925C838.642 -25.9823 840.38 -25.6925 842.409 -25.1129C845.597 -23.9537 850.233 -19.317 843.568 -26.8517C842.409 -28.0109 841.25 -29.4598 840.38 -30.619C852.262 -14.9701 838.062 2.41746 825.021 11.1113C812.85 19.2255 798.07 23.5724 783.581 24.7316C769.091 25.6009 754.022 22.9928 740.691 17.4867C734.026 14.5888 727.651 11.1113 721.855 6.76436C718.957 4.44601 716.059 2.12767 713.451 -0.480476C712.581 -1.34986 712.002 -2.21924 711.132 -2.79882C710.553 -3.37841 718.377 5.89499 715.479 1.83788C714.03 0.0991144 712.581 -1.63965 711.422 -3.66821C702.439 -17.5783 695.483 -40.1822 711.422 -52.0637C716.928 -56.1208 724.753 -58.1494 731.418 -54.9617C732.287 -54.6719 732.577 -54.0923 733.446 -53.8025C738.663 -50.9045 726.491 -63.9453 728.23 -59.8881C728.81 -58.4392 729.679 -56.9902 729.969 -55.5412C730.838 -52.0637 730.549 -48.2964 729.389 -44.8189C723.883 -26.5619 703.308 -25.6925 688.239 -31.7782C670.561 -39.3128 658.1 -54.9617 640.712 -62.7861C607.386 -77.5656 565.366 -69.1615 541.024 -41.921C540.444 -41.3414 550.587 -31.7782 550.297 -31.4884C568.264 -51.4841 595.505 -61.3371 621.876 -59.3086C634.917 -58.1494 647.957 -54.3821 658.969 -47.427C672.88 -39.023 684.182 -26.2721 699.541 -20.4762C712.292 -15.8395 728.81 -16.1293 736.344 -29.17C739.242 -34.0965 740.401 -40.1822 738.953 -45.3985C737.214 -51.1943 731.708 -55.831 727.94 -60.1779C724.463 -64.2351 720.116 -66.8432 714.61 -66.5534C708.524 -66.2636 702.728 -63.3657 698.671 -59.0188C687.949 -47.1372 693.165 -29.17 700.41 -16.9987C706.496 -6.85593 714.9 2.70725 723.593 10.8215C732.287 18.9357 742.72 25.3112 754.022 29.3683C776.626 37.7723 802.707 37.4825 824.731 27.3397C836.613 21.8336 849.943 12.5602 853.421 -1.06005C856.609 -13.811 847.915 -24.2435 838.931 -32.3578C828.789 -41.3414 813.719 -33.5169 809.083 -22.5048C802.997 -8.01511 811.111 9.37251 819.515 21.254C835.164 43.2784 857.188 62.6945 884.719 66.1721C911.669 69.3598 939.49 55.4497 952.53 31.3968C955.718 25.601 957.747 19.5153 958.616 13.1398C958.906 12.2705 954.559 8.50313 953.979 7.92355C953.69 7.92355 949.343 4.15623 949.632 3.28685Z" fill="#FFBC02"/>
</g>
</g>
</svg>
