<svg width="39" height="39" viewBox="0 0 39 39" fill="none" xmlns="http://www.w3.org/2000/svg">
<rect x="0.380859" width="38.3809" height="38.3809" rx="9.30445" fill="#D2F9F5"/>
<path d="M15.5 11.5L13.25 14.5V25C13.25 25.3978 13.408 25.7794 13.6893 26.0607C13.9706 26.342 14.3522 26.5 14.75 26.5H25.25C25.6478 26.5 26.0294 26.342 26.3107 26.0607C26.592 25.7794 26.75 25.3978 26.75 25V14.5L24.5 11.5H15.5Z" stroke="#3CBEB2" stroke-width="1.5" stroke-linecap="round" stroke-linejoin="round"/>
<path d="M13.25 14.5H26.75" stroke="#3CBEB2" stroke-width="1.5" stroke-linecap="round" stroke-linejoin="round"/>
<path d="M23 17.5C23 18.2956 22.6839 19.0587 22.1213 19.6213C21.5587 20.1839 20.7956 20.5 20 20.5C19.2044 20.5 18.4413 20.1839 17.8787 19.6213C17.3161 19.0587 17 18.2956 17 17.5" stroke="#3CBEB2" stroke-width="1.5" stroke-linecap="round" stroke-linejoin="round"/>
</svg>
