<svg width="39" height="39" viewBox="0 0 39 39" fill="none" xmlns="http://www.w3.org/2000/svg">
<rect x="0.380859" width="38.3809" height="38.3809" rx="9.30445" fill="#D2F9F5"/>
<path fill-rule="evenodd" clip-rule="evenodd" d="M13.25 13.75C12.8358 13.75 12.5 14.0858 12.5 14.5V23.5C12.5 23.9142 12.8358 24.25 13.25 24.25H26.75C27.1642 24.25 27.5 23.9142 27.5 23.5V14.5C27.5 14.0858 27.1642 13.75 26.75 13.75H13.25ZM11 14.5C11 13.2574 12.0074 12.25 13.25 12.25H26.75C27.9926 12.25 29 13.2574 29 14.5V23.5C29 24.7426 27.9926 25.75 26.75 25.75H13.25C12.0074 25.75 11 24.7426 11 23.5V14.5Z" fill="#3CBEB2"/>
<path fill-rule="evenodd" clip-rule="evenodd" d="M11 17.5C11 17.0858 11.3358 16.75 11.75 16.75H28.25C28.6642 16.75 29 17.0858 29 17.5C29 17.9142 28.6642 18.25 28.25 18.25H11.75C11.3358 18.25 11 17.9142 11 17.5Z" fill="#3CBEB2"/>
</svg>
