<svg width="39" height="39" viewBox="0 0 39 39" fill="none" xmlns="http://www.w3.org/2000/svg">
<rect x="0.380859" width="38.3809" height="38.3809" rx="9.30445" fill="#D2F9F5"/>
<path d="M23.75 25.75V24.25C23.75 23.4544 23.4339 22.6913 22.8713 22.1287C22.3087 21.5661 21.5456 21.25 20.75 21.25H14.75C13.9544 21.25 13.1913 21.5661 12.6287 22.1287C12.0661 22.6913 11.75 23.4544 11.75 24.25V25.75" stroke="#3CBEB2" stroke-width="1.5" stroke-linecap="round" stroke-linejoin="round"/>
<path d="M17.75 18.25C19.4069 18.25 20.75 16.9069 20.75 15.25C20.75 13.5931 19.4069 12.25 17.75 12.25C16.0931 12.25 14.75 13.5931 14.75 15.25C14.75 16.9069 16.0931 18.25 17.75 18.25Z" stroke="#3CBEB2" stroke-width="1.5" stroke-linecap="round" stroke-linejoin="round"/>
<path d="M28.25 25.75V24.25C28.2495 23.5853 28.0283 22.9396 27.621 22.4143C27.2138 21.8889 26.6436 21.5137 26 21.3475" stroke="#3CBEB2" stroke-width="1.5" stroke-linecap="round" stroke-linejoin="round"/>
<path d="M23 12.3475C23.6453 12.5128 24.2173 12.8881 24.6257 13.4143C25.0342 13.9405 25.2559 14.5877 25.2559 15.2538C25.2559 15.9199 25.0342 16.5671 24.6257 17.0933C24.2173 17.6195 23.6453 17.9948 23 18.16" stroke="#3CBEB2" stroke-width="1.5" stroke-linecap="round" stroke-linejoin="round"/>
</svg>
