<svg width="39" height="39" viewBox="0 0 39 39" fill="none" xmlns="http://www.w3.org/2000/svg">
<rect x="0.380859" width="38.3809" height="38.3809" rx="9.30445" fill="#D2F9F5"/>
<path fill-rule="evenodd" clip-rule="evenodd" d="M14 16C13.5858 16 13.25 16.3358 13.25 16.75V24.25C13.25 24.6642 13.5858 25 14 25H26C26.4142 25 26.75 24.6642 26.75 24.25V16.75C26.75 16.3358 26.4142 16 26 16H14ZM11.75 16.75C11.75 15.5074 12.7574 14.5 14 14.5H26C27.2426 14.5 28.25 15.5074 28.25 16.75V24.25C28.25 25.4926 27.2426 26.5 26 26.5H14C12.7574 26.5 11.75 25.4926 11.75 24.25V16.75Z" fill="#3CBEB2"/>
<path fill-rule="evenodd" clip-rule="evenodd" d="M16.909 12.159C17.331 11.7371 17.9033 11.5 18.5 11.5H21.5C22.0967 11.5 22.669 11.7371 23.091 12.159C23.5129 12.581 23.75 13.1533 23.75 13.75V25.75C23.75 26.1642 23.4142 26.5 23 26.5C22.5858 26.5 22.25 26.1642 22.25 25.75V13.75C22.25 13.5511 22.171 13.3603 22.0303 13.2197C21.8897 13.079 21.6989 13 21.5 13H18.5C18.3011 13 18.1103 13.079 17.9697 13.2197C17.829 13.3603 17.75 13.5511 17.75 13.75V25.75C17.75 26.1642 17.4142 26.5 17 26.5C16.5858 26.5 16.25 26.1642 16.25 25.75V13.75C16.25 13.1533 16.4871 12.581 16.909 12.159Z" fill="#3CBEB2"/>
</svg>
