<svg width="39" height="39" viewBox="0 0 39 39" fill="none" xmlns="http://www.w3.org/2000/svg">
<rect width="38.3809" height="38.3809" rx="9.30445" fill="#D2F9F5"/>
<path fill-rule="evenodd" clip-rule="evenodd" d="M13 13.75C13 13.7507 13 13.7539 13.0023 13.7615C13.0048 13.7698 13.0111 13.7863 13.0263 13.8111C13.0581 13.8629 13.1231 13.9409 13.2447 14.0367C13.4923 14.2319 13.8971 14.4405 14.4642 14.6295C15.5905 15.0049 17.1942 15.25 19 15.25C20.8058 15.25 22.4095 15.0049 23.5358 14.6295C24.1029 14.4405 24.5077 14.2319 24.7553 14.0367C24.8769 13.9409 24.9419 13.8629 24.9737 13.8111C24.9889 13.7863 24.9952 13.7698 24.9977 13.7615C25 13.7539 25 13.7507 25 13.75C25 13.7495 25.0001 13.7463 24.9977 13.7385C24.9952 13.7302 24.9889 13.7137 24.9737 13.6889C24.9419 13.6371 24.8769 13.5591 24.7553 13.4633C24.5077 13.2681 24.1029 13.0595 23.5358 12.8705C22.4095 12.4951 20.8058 12.25 19 12.25C17.1942 12.25 15.5905 12.4951 14.4642 12.8705C13.8971 13.0595 13.4923 13.2681 13.2447 13.4633C13.1231 13.5591 13.0581 13.6371 13.0263 13.6889C13.0111 13.7137 13.0048 13.7302 13.0023 13.7385C13 13.7461 13 13.7493 13 13.75ZM13.9899 11.4475C15.3066 11.0086 17.0779 10.75 19 10.75C20.9221 10.75 22.6934 11.0086 24.0101 11.4475C24.6646 11.6656 25.2483 11.9419 25.6838 12.2851C26.1108 12.6217 26.5 13.111 26.5 13.75C26.5 14.389 26.1108 14.8783 25.6838 15.2149C25.2483 15.5581 24.6646 15.8344 24.0101 16.0525C22.6934 16.4914 20.9221 16.75 19 16.75C17.0779 16.75 15.3066 16.4914 13.9899 16.0525C13.3354 15.8344 12.7517 15.5581 12.3162 15.2149C11.8892 14.8783 11.5 14.389 11.5 13.75C11.5 13.111 11.8892 12.6217 12.3162 12.2851C12.7517 11.9419 13.3354 11.6656 13.9899 11.4475Z" fill="#3CBEB2"/>
<path fill-rule="evenodd" clip-rule="evenodd" d="M12.25 18.25C12.6642 18.25 13 18.5858 13 19C13 19.0014 13.0001 19.0053 13.0026 19.0135C13.0052 19.0223 13.0116 19.0391 13.0267 19.0638C13.0583 19.1157 13.1226 19.1935 13.2431 19.289C13.4887 19.4836 13.8909 19.6917 14.4562 19.8805C15.5792 20.2554 17.1826 20.5 19 20.5C20.8174 20.5 22.4208 20.2554 23.5438 19.8805C24.1091 19.6917 24.5113 19.4836 24.7569 19.289C24.8774 19.1935 24.9417 19.1157 24.9733 19.0638C24.9884 19.0391 24.9948 19.0223 24.9974 19.0135C24.9999 19.0053 25 19.0014 25 19C25 18.5858 25.3358 18.25 25.75 18.25C26.1642 18.25 26.5 18.5858 26.5 19C26.5 19.637 26.1151 20.1265 25.6885 20.4646C25.2543 20.8086 24.6722 21.0851 24.0187 21.3033C22.7042 21.7421 20.9326 22 19 22C17.0674 22 15.2958 21.7421 13.9813 21.3033C13.3278 21.0851 12.7457 20.8086 12.3115 20.4646C11.8849 20.1265 11.5 19.637 11.5 19C11.5 18.5858 11.8358 18.25 12.25 18.25Z" fill="#3CBEB2"/>
<path fill-rule="evenodd" clip-rule="evenodd" d="M12.25 13C12.6642 13 13 13.3358 13 13.75V24.25C13 24.2514 13.0001 24.2553 13.0026 24.2635C13.0052 24.2723 13.0116 24.2891 13.0267 24.3138C13.0583 24.3657 13.1226 24.4435 13.2431 24.539C13.4887 24.7336 13.8909 24.9417 14.4562 25.1305C15.5792 25.5054 17.1826 25.75 19 25.75C20.8174 25.75 22.4208 25.5054 23.5438 25.1305C24.1091 24.9417 24.5113 24.7336 24.7569 24.539C24.8774 24.4435 24.9417 24.3657 24.9733 24.3138C24.9884 24.2891 24.9948 24.2723 24.9974 24.2635C24.9999 24.2553 25 24.2514 25 24.25V13.75C25 13.3358 25.3358 13 25.75 13C26.1642 13 26.5 13.3358 26.5 13.75V24.25C26.5 24.887 26.1151 25.3765 25.6885 25.7146C25.2543 26.0586 24.6722 26.3351 24.0187 26.5533C22.7042 26.9921 20.9326 27.25 19 27.25C17.0674 27.25 15.2958 26.9921 13.9813 26.5533C13.3278 26.3351 12.7457 26.0586 12.3115 25.7146C11.8849 25.3765 11.5 24.887 11.5 24.25V13.75C11.5 13.3358 11.8358 13 12.25 13Z" fill="#3CBEB2"/>
</svg>
